<?xml version="1.0" encoding="utf-8"?>
<!-- Generator: Adobe Illustrator 19.0.0, SVG Export Plug-In . SVG Version: 6.00 Build 0)  -->
<svg version="1.2" baseProfile="tiny" id="Layer_1" xmlns="http://www.w3.org/2000/svg" xmlns:xlink="http://www.w3.org/1999/xlink"
	 x="0px" y="0px" viewBox="0 0 1000 1000" xml:space="preserve">
<path id="XMLID_5_" d="M911,593l-119.4-48.7L806,569H551.4c-8.8-0.1-17.5-0.2-26.3-0.2c-2.3,0-4.9,0-7.5,0.2H458v48h61.7
	c2.2,0.1,4.4,0,6.5,0h34.9c12.3,0,61.6,0,61.6,6.2c0,4.1-23.6,96.6-26.7,106.8c-17.5,57.5-83.2,91.4-146.8,91.4
	c-62.6,0-115-21.6-142.7-46.2c-29.8-27.7-50.3-65.7-50.3-131.4c0-46.2,26.7-238.2,110.9-347.1c72.9-92.4,176.6-118.1,243.4-118.1
	c105.8,0,148.9,85.2,148.9,175.6c0,32.9-3.1,37-3.1,45.2c0,15.4,11.3,15.4,31.8,15.4c25.7,0,27.7,0,32.9-20.5l57.5-230
	c4.1-15.4,4.1-19.5,4.1-19.5c0-14.4-12.3-14.4-27.7-14.4l-88.3,69.8c-64.7-69.8-144.8-69.8-170.5-69.8
	c-298.8,0-478.5,249.5-478.5,471.3c0,192,145.8,268,302.9,268c62.6,0,140.7-15.4,197.2-65.7c26.7,23.6,69.8,48.3,77,48.3
	c12.3,0,14.4-9.2,17.4-21.6l48.3-196.1c3.1-14.4,5.1-14.4,12.3-15.4c11.1-2,22.2-2.1,33.3-2.1l-14.3,24.7L911,593z"/>
</svg>
