<svg version="1.2" baseProfile="tiny" id="Layer_1" xmlns="http://www.w3.org/2000/svg" xmlns:xlink="http://www.w3.org/1999/xlink"
	 x="0px" y="0px" viewBox="0 0 303.7 80.3" xml:space="preserve">
<path id="XMLID_5_" d="M77,45.2l-11.1-4.8l1.3,2.1H43.5c-0.8,0-1.6,0-2.4,0c-0.2,0-0.5,0-0.7,0h-5.6v5h5.8c0.2,0,0.4,0,0.6,0h3.3
	c1.1,0,5.7,0,5.7,0.5c0,0.4-2.2,9-2.5,9.9c-1.6,5.4-7.7,8.5-13.7,8.5c-5.8,0-10.7-2-13.3-4.3C18,59.6,16,56,16,49.9
	c0-4.3,2.5-22.2,10.3-32.3C33.2,9,42.8,6.6,49,6.6c9.9,0,13.9,7.9,13.9,16.4c0,3.1-0.3,3.4-0.3,4.2c0,1.4,1.1,1.4,3,1.4
	c2.4,0,2.6,0,3.1-1.9L74,5.2c0.4-1.4,0.4-1.8,0.4-1.8c0-1.3-1.1-1.3-2.6-1.3l-8.2,6.5c-6-6.5-13.5-6.5-15.9-6.5
	C19.9,2.1,3.1,25.3,3.1,46c0,17.9,13.6,25,28.2,25c5.8,0,13.1-1.4,18.4-6.1c2.5,2.2,6.5,4.5,7.2,4.5c1.1,0,1.3-0.9,1.6-2L63,49
	c0.3-1.3,0.5-1.3,1.1-1.4c1-0.2,2.1-0.2,3.1-0.2l-1.3,2.3L77,45.2z"/>
<g id="XMLID_1_">
	<path id="XMLID_37_" d="M89.8,68.1C87.8,68,85.3,68,83.1,68l-7.4,0.2l0.6-3.7h0.9c3.4,0,3.4,0,3.7-1.6l2.4-14.5
		c0.2-1.2,0.2-1.5,0.1-1.6c-0.1-0.1-0.7-0.3-2.8-0.3h-1.2l0.6-3.6l9.7-0.8L89.1,45c1.4-1.5,3.4-2.8,5.9-2.8c1.5,0,2.8,0.5,3.6,1.5
		c0.7,0.8,1,1.9,0.8,2.9c-0.4,2.1-2.2,3.2-3.7,3.2c-0.9,0-1.7-0.3-2.3-1c-0.4-0.5-0.8-1.2-0.6-2.5c0-0.2,0.1-0.4,0.2-0.6
		c-2.7,1.3-4.6,5.1-5.2,8.9l-1.4,8.3c-0.1,0.3-0.2,1-0.1,1.1c0.1,0.1,0.6,0.3,2.8,0.3h2.3l-0.6,3.7L89.8,68.1z"/>
	<path id="XMLID_3_" d="M95.8,48.9c-1.2,0-2.2-0.8-1.9-2.3c0.3-1.4,1.5-2.1,1.6-2.1c-0.1-0.1-0.2-0.1-0.6-0.1
		c-4.1,0-7.2,4.8-8.1,10.2l-1.4,8.3c-0.3,1.9-0.3,2.5,3.7,2.5h1.1l-0.3,1.7C87.8,67,85.3,67,83.1,67l-6.2,0.2l0.3-1.7
		c3.6,0,4.2,0,4.7-2.4l2.4-14.5c0.5-2.7,0.1-3-3.7-3l0.3-1.7l7.6-0.6l-1,5.8h0.1c1.1-2.2,3.6-5.8,7.6-5.8c2.3,0,3.7,1.6,3.5,3.3
		C98.2,48.3,96.7,48.9,95.8,48.9z"/>
	<path id="XMLID_41_" d="M106.9,68.7c-2.6,0-5.9-0.7-7.6-2.8c-1-1.1-1.3-2.6-1-4.2c0.5-3.2,3.1-6.1,7.2-7.8c3.5-1.5,7.1-1.8,9.8-2
		l0.2-1.2c0.3-1.9,0-3.5-0.8-4.5c-0.7-0.8-1.7-1.2-2.8-1.2c-1.2,0-2.8,0.3-4.1,1.1c0.2,0.2,0.4,0.3,0.6,0.5c0.8,0.9,0.7,2.1,0.6,2.5
		c-0.4,2-2,3.3-3.9,3.3c-1,0-1.9-0.4-2.4-1c-0.4-0.5-0.8-1.3-0.6-2.7c0.7-4,5-7,10.2-7c3.1,0,5.9,1.2,7.7,3.3c1.9,2.4,1.5,5,1.1,7.2
		l-1.8,10.8c-0.1,0.3,0,1.1,0.2,1.4c0,0,0.1,0.1,0.3,0.1c0.5,0,1.2-0.6,1.6-2.5l0.6-3.8h3.4l-0.7,4.1c-0.8,4.7-4.5,5.9-6.3,5.9
		c-1.3,0-2.4-0.5-3.2-1.3c-0.4-0.4-0.7-1-1-1.6C112.4,67.3,110,68.7,106.9,68.7z M114.6,55.2c-8.9,0.7-10.1,5.8-10.3,6.9
		c-0.2,0.9,0,1.8,0.6,2.4c0.6,0.7,1.5,1,2.5,1c2.1,0,5.8-1.7,6.5-6.1L114.6,55.2z"/>
	<path id="XMLID_6_" d="M118.2,67.5c-2.5,0-3.6-2.3-3.5-4.4c-1.5,2.5-4.3,4.7-7.9,4.7c-3.4,0-8.4-1.4-7.7-5.7c0.4-2.4,2.2-5.2,6.6-7
		c3.7-1.6,7.5-1.8,10.3-1.9l0.3-2c0.8-4.8-1.9-6.9-4.6-6.9c-1.7,0-4.5,0.6-6.3,2.5c2.5,0.1,2.5,1.8,2.4,2.5
		c-0.3,1.4-1.4,2.5-2.9,2.5c-1.4,0-2.3-0.9-2.1-2.5c0.6-3.6,4.8-6.1,9.2-6.1c2.6,0,5.1,0.9,6.9,3c1.6,2,1.2,4.1,0.9,6.4l-1.8,10.8
		c-0.1,0.3-0.3,2.7,1.5,2.7c0.6,0,2-0.3,2.5-3.5l0.5-3h1.4l-0.5,3C122.8,66.7,119.4,67.5,118.2,67.5z M115.8,54.2
		c-9,0.3-12,4.8-12.5,7.8c-0.4,2.7,1.5,4.6,4.1,4.6c2.4,0,6.7-1.8,7.5-7L115.8,54.2z"/>
	<path id="XMLID_38_" d="M122.8,74.5h0.9c3.4,0,3.4,0.2,3.6-1.4l4.2-25.2c0.2-1,0.1-1.2,0.1-1.2c-0.3-0.2-2.2-0.2-2.9-0.2h-1.2
		l0.6-3.6l10-0.8l-0.4,2.2c1.6-1,3.8-2.1,6.7-2.1c3.1,0,5.9,1.3,7.8,3.6c2.2,2.6,3,6.1,2.4,9.8c-1.2,7.2-8,13.1-15.1,13.1
		c-2.6,0-4.4-1-5.5-2l-1.2,7c-0.1,0.9-0.1,0.9-0.1,0.9c0.2,0.1,1.6-0.1,2.9-0.1h1.2l-0.6,3.9l-7-0.1l-7.2,0L122.8,74.5z M135.1,61.1
		c-0.1,0.8-0.1,0.8,0.3,1.7c0.9,1.8,2.4,2.7,4.2,2.7c3.3,0,7.6-3.9,8.6-10.3c0.6-3.4,0-6.5-1.5-8.3c-0.8-0.9-1.8-1.4-2.9-1.4
		c-2.4,0-5,1.4-6.8,3.7L135.1,61.1z"/>
	<path id="XMLID_9_" d="M139.7,67.7c-4.1,0-5.9-2.9-6.1-3.3l-1.5,9.1c-0.4,2.4,0.2,2.4,3.8,2.4l-0.3,1.7l-6.1-0.2l-6.1,0.2l0.3-1.7
		c3.6,0,4.2,0,4.6-2.4l4.2-25.3c0.4-2.4,0.1-2.7-3.7-2.7l0.3-1.7l7.9-0.6l-0.6,3.6c1.2-1.2,4-3.6,8.2-3.6c6.1,0,10.4,5.4,9.3,12.2
		C152.6,62.4,146.1,67.7,139.7,67.7z M143.9,44.6c-2.8,0-5.7,1.6-7.7,4.3l-2,12.1c-0.2,1.1-0.2,1.1,0.4,2.3c1.1,2.2,3,3.3,5.1,3.3
		c4,0,8.6-4.5,9.6-11.1C150.3,49.3,147.8,44.6,143.9,44.6z"/>
	<path id="XMLID_36_" d="M169.9,64.5h0.9c3.4,0,3.4,0,3.7-1.6l2.1-12.6c0.1-0.8,0.5-3.3-0.3-4.3c-0.3-0.4-0.9-0.6-1.7-0.6
		c-3.2,0-6.9,2.9-7.8,7.8l-1.6,9.9c-0.2,0.9-0.1,1.1-0.1,1.2c0.2,0.1,1.6,0.1,2.9,0.1h1.2l-0.6,3.7l-6.9-0.2l-7.3,0.2l0.6-3.7h0.9
		c3.4,0,3.4,0,3.7-1.6l7.2-43.2c0.2-1.3,0.1-1.7,0.1-1.7c-0.2-0.2-1.1-0.5-2.8-0.5h-1.2l0.6-3.5l10-0.7L168,45
		c1.6-1.4,4-2.8,7.1-2.8c3.9,0,5.5,1.5,6.2,2.4c1.5,2.2,1.2,4.1,0.5,8.6L180,64c0,0.2,0,0.3,0,0.3c0.3,0.2,1.7,0.2,3,0.2h1.2
		l-0.6,3.7l-6.9-0.2l-7.3,0.2L169.9,64.5z"/>
	<path id="XMLID_12_" d="M176.7,67l-6.2,0.2l0.3-1.7c3.6,0,4.2,0,4.7-2.4l2.1-12.6c0.5-3.1,0.4-6-3-6c-3.5,0-7.8,3-8.8,8.7l-1.6,10
		c-0.4,2.4,0.2,2.4,3.8,2.4l-0.3,1.7l-6-0.2l-6.2,0.2l0.3-1.7c3.6,0,4.2,0,4.7-2.4l7.2-43.2c0.4-2.7,0.1-3-3.7-3l0.3-1.7l7.9-0.6
		l-5.6,33.9h0.1c1.2-1.9,4.1-5.2,8.7-5.2c3.1,0,4.7,1.1,5.4,2c1.4,1.9,1,3.6,0.3,8.3L179,63.8c-0.2,1.6,1.1,1.6,4,1.6l-0.3,1.7
		L176.7,67z"/>
	<path id="XMLID_35_" d="M186.5,79.2c-1.7,0-3.2-0.7-4.2-1.8c-0.9-1-1.2-2.4-1-3.7c0.4-2.2,2.1-3.2,3.6-3.2c0.9,0,1.8,0.4,2.3,1
		c0.5,0.6,0.7,1.5,0.5,2.4c-0.1,0.7-0.4,1.4-1.1,2.1c2.9,0,4.9-3.6,6.4-6.2l1.7-2.9L190,47.6c-0.2-1-0.3-1.1-3.1-1.1h-1.2l0.6-3.7
		l0.9,0.1c1.7,0.1,3.8,0.2,5.1,0.2l7.1-0.2l-0.6,3.7h-0.9c-0.6,0-2,0-2.3,0.5c0,0.1,0,0.2,0.1,0.4l0.1,0.3l3,12.1l6.4-11.2
		c0.3-0.6,0.3-0.6,0.4-1c0-0.2,0-0.6-0.1-0.8c-0.2-0.2-0.6-0.3-1.1-0.4l-1.1,0l0.6-3.7l5.5,0.2c1.3,0,2.9-0.1,4-0.2l1.3-0.1
		l-0.6,3.8h-0.9c-0.7,0-3,0-4.8,3l-13.4,23.1C192.7,76.9,189.6,79.2,186.5,79.2z"/>
	<path id="XMLID_14_" d="M207.8,49l-13.4,23.1c-1.8,3.1-4.5,6.2-8,6.2c-2.7,0-4.7-1.9-4.3-4.4c0.3-1.6,1.6-2.3,2.7-2.3
		c1.2,0,2.2,0.9,1.9,2.3c-0.1,0.9-0.8,2.1-2.5,2.3c0.9,1,2.1,1,2.4,1c3.5,0,5.6-3.7,7.3-6.7l1.9-3.2L191,47.4
		c-0.4-1.9-1.5-1.9-4.1-1.9l0.3-1.7c1.6,0.1,3.7,0.2,5.2,0.2l6-0.2l-0.3,1.7c-1,0-3,0-3.3,1.4c0,0.2,0.1,0.4,0.2,1l3.6,14.6
		l7.7-13.3c0.4-0.7,0.4-0.8,0.5-1.3c0.2-1.4-0.5-2.3-2.2-2.3l0.3-1.7l4.7,0.2c1.2,0,2.9-0.1,4.1-0.2l-0.3,1.7
		C212.6,45.5,209.8,45.5,207.8,49z"/>
	<path id="XMLID_31_" d="M221.5,68.7c-1,0-3.4,0-5.6-1.9c-0.3,0.3-0.3,0.3-0.4,0.4c-0.1,0.1-0.1,0.1-0.1,0.2l-0.2,0.2
		c-1.2,1-1.4,1.2-2.1,1.2c-0.5,0-0.9-0.2-1.2-0.5c-0.5-0.5-0.3-1.2-0.2-2l1.2-7.1c0.2-1,0.4-2.2,1.9-2.2c1.5,0,1.6,1.2,1.6,1.8
		c0.2,4.8,1.7,6.8,5.2,6.8c3.4,0,5.5-1.5,5.9-4.1c0.3-2-1-3.3-4-3.8c-3.6-0.7-5.5-1.1-7.2-2.7c-1.6-1.5-2.2-3.4-1.9-5.5
		c0.6-3.6,3.8-7.5,10.8-7.5c0.8,0,2.9,0,4.8,1.3c0.2-0.1,0.3-0.2,0.4-0.3l0,0l0,0c0.8-0.7,1.2-0.9,1.8-0.9c0.5,0,0.9,0.2,1.2,0.5
		c0.5,0.5,0.3,1.2,0.2,2l-0.9,5.5c-0.2,1-0.1,2.1-1.7,2.1c-0.8,0-1.4-0.5-1.4-1.5v-0.1l-0.2-0.1c0.1-0.8,0.3-3-0.8-4.2
		c-0.7-0.8-1.9-1.2-3.5-1.2c-4.8,0-5.7,2.5-5.8,3.3c-0.3,1.9,1.3,2.5,5.1,3.3c2.2,0.4,4.6,0.9,6.3,2.9c0.6,0.7,2.2,2.6,1.6,6
		C231.8,64.4,228.6,68.7,221.5,68.7z"/>
	<path id="XMLID_16_" d="M221.5,67.7c-1.1,0-3.6-0.1-5.6-2.3c-1.1,1-1.1,1.1-1.2,1.2c-1.2,1-1.3,1.1-1.6,1.1c-0.6,0-0.5-0.4-0.4-1.3
		l1.2-7.1c0.2-1,0.2-1.4,0.9-1.4c0.5,0,0.6,0.2,0.6,0.9c0.2,4.6,1.7,7.7,6.2,7.7c4.2,0,6.5-2.2,6.9-4.9c0.6-3.9-3.6-4.8-4.8-5
		c-3.7-0.8-5.2-1.1-6.7-2.5c-1.2-1.2-1.9-2.7-1.6-4.6c0.5-3,3.2-6.7,9.8-6.7c0.8,0,3,0,4.8,1.5c0.3-0.2,0.9-0.6,1.1-0.9
		c0.8-0.6,0.9-0.6,1.2-0.6c0.6,0,0.5,0.4,0.4,1.3l-0.9,5.5c-0.2,1-0.2,1.3-0.9,1.3c0,0-0.6,0-0.6-0.5c0.2-1.7,0.8-6.5-5.2-6.5
		c-4.7,0-6.4,2.2-6.8,4.1c-0.5,3.1,3,3.8,5.9,4.4c2.2,0.4,4.3,0.9,5.7,2.6c0.5,0.6,1.9,2.3,1.4,5.1
		C230.8,64.1,227.8,67.7,221.5,67.7z"/>
	<path id="XMLID_32_" d="M233.4,64.5h0.9c3.4,0,3.4,0,3.7-1.6l2.4-14.6c0.2-1.3,0.1-1.5,0.1-1.5c-0.2-0.2-1-0.3-2.6-0.3h-1.2
		l0.6-3.6l9.7-0.8l-3.5,21.1c0,0.2-0.1,0.8-0.1,1.1c0.4,0.2,2,0.2,2.5,0.2h1.2l-0.6,3.7l-0.9,0c-0.6,0-1.2,0-1.8-0.1
		c-1.2,0-2.5-0.1-3.7-0.1l-7.2,0.2L233.4,64.5z M245.7,32.3c-1,0-2-0.4-2.6-1.2c-0.7-0.8-1-1.8-0.8-2.8c0.4-1.8,2-3.7,4.4-3.7
		c1.1,0,2,0.4,2.6,1.2c0.7,0.8,0.9,1.8,0.7,2.8C249.7,30.4,248,32.3,245.7,32.3z"/>
	<path id="XMLID_18_" d="M240,67l-6,0.2l0.3-1.7c3.6,0,4.2,0,4.7-2.4l2.4-14.6c0.4-2.7,0-3-3.5-3l0.3-1.7l7.7-0.6l-3.3,19.9
		c-0.4,2.1-0.2,2.4,3.4,2.4l-0.3,1.7C243.7,67.1,241.9,67,240,67z M245.7,31.3c-1.6,0-2.7-1.4-2.4-2.9c0.3-1.4,1.6-2.9,3.4-2.9
		c1.6,0,2.7,1.4,2.4,2.9C248.8,29.7,247.5,31.3,245.7,31.3z"/>
	<path id="XMLID_27_" d="M260.6,68.7c-3.2,0-6.1-1.3-8.1-3.7c-2.2-2.6-3-6-2.4-9.8c1.3-7.5,7.8-13.4,14.8-13.4c3,0,5.7,1,7.1,2.7
		c1,1.2,1.4,2.6,1.1,4.2c-0.3,2-1.9,3.4-3.9,3.4c-1,0-1.9-0.4-2.5-1.1c-0.6-0.7-0.8-1.6-0.6-2.6c0.1-0.9,0.7-2,1.8-2.7
		c-1.4-0.6-3-0.6-3.3-0.6c-3,0-6.9,2.7-8.2,10.3c-0.6,3.7-0.2,6.5,1.3,8.2c1.3,1.5,2.9,1.6,3.5,1.6c3.1,0,5.5-1.7,7.2-5.1
		c0.2-0.3,0.6-1.1,1.7-1.1c0.6,0,1,0.2,1.3,0.5c0.3,0.3,0.4,0.8,0.3,1.2C271.6,61.9,268.4,68.7,260.6,68.7z"/>
	<path id="XMLID_21_" d="M260.6,67.7c-6.3,0-10.7-5.4-9.6-12.3c1.1-6.7,7.1-12.6,13.9-12.6c4.2,0,7.9,2.1,7.3,5.8
		c-0.3,1.6-1.5,2.5-2.9,2.5c-1.5,0-2.3-1.1-2.1-2.5c0.1-0.7,0.7-2.3,2.9-2.5c-1.6-1.9-4.9-2-5.4-2c-2.9,0-7.7,2.3-9.2,11.1
		c-1.4,8.7,2.9,11,5.8,11c2,0,5.6-0.6,8.1-5.7c0.2-0.3,0.3-0.5,0.8-0.5c0.2,0,0.7,0,0.6,0.5S267.9,67.7,260.6,67.7z"/>
	<path id="XMLID_28_" d="M281.6,68.7c-2.6,0-5.9-0.7-7.6-2.8c-1-1.1-1.3-2.6-1-4.2c0.5-3.2,3.1-6.1,7.2-7.8c3.5-1.5,7.1-1.8,9.8-2
		l0.2-1.2c0.3-1.9,0-3.5-0.8-4.5c-0.7-0.8-1.7-1.2-2.8-1.2c-1.2,0-2.8,0.3-4.1,1.1c0.2,0.2,0.4,0.3,0.6,0.5c0.8,0.9,0.7,2.1,0.6,2.5
		c-0.4,2-2,3.3-3.9,3.3c-1,0-1.9-0.4-2.4-1c-0.4-0.5-0.8-1.3-0.6-2.7c0.7-4,5-7,10.2-7c3.1,0,5.9,1.2,7.7,3.3c1.9,2.4,1.5,5,1.1,7.2
		l-1.8,10.8c-0.1,0.3,0,1.1,0.2,1.4c0,0,0.1,0.1,0.3,0.1c0.5,0,1.2-0.6,1.6-2.5l0.6-3.8h3.4l-0.7,4.1c-0.8,4.7-4.5,5.9-6.3,5.9
		c-1.3,0-2.4-0.5-3.2-1.3c-0.4-0.4-0.7-1-1-1.6C287.1,67.3,284.7,68.7,281.6,68.7z M289.3,55.2c-8.9,0.7-10.1,5.8-10.3,6.9
		c-0.2,0.9,0,1.8,0.6,2.4c0.6,0.7,1.5,1,2.5,1c2.1,0,5.8-1.7,6.5-6.1L289.3,55.2z"/>
	<path id="XMLID_23_" d="M292.9,67.5c-2.5,0-3.6-2.3-3.5-4.4c-1.5,2.5-4.3,4.7-7.9,4.7c-3.4,0-8.4-1.4-7.7-5.7
		c0.4-2.4,2.2-5.2,6.6-7c3.7-1.6,7.5-1.8,10.3-1.9l0.3-2c0.8-4.8-1.9-6.9-4.6-6.9c-1.7,0-4.5,0.6-6.3,2.5c2.5,0.1,2.5,1.8,2.4,2.5
		c-0.3,1.4-1.4,2.5-2.9,2.5c-1.4,0-2.3-0.9-2.1-2.5c0.6-3.6,4.8-6.1,9.2-6.1c2.6,0,5.1,0.9,6.9,3c1.6,2,1.2,4.1,0.9,6.4l-1.8,10.8
		c-0.1,0.3-0.3,2.7,1.5,2.7c0.6,0,2-0.3,2.5-3.5l0.5-3h1.4l-0.5,3C297.5,66.7,294.1,67.5,292.9,67.5z M290.5,54.2
		c-9,0.3-12,4.8-12.5,7.8c-0.4,2.7,1.5,4.6,4.1,4.6c2.4,0,6.7-1.8,7.5-7L290.5,54.2z"/>
</g>
</svg>
